<?xml version="1.0" encoding="UTF-8"?>
<svg width="92" height="24" viewBox="0 0 92 24" fill="none" xmlns="http://www.w3.org/2000/svg">
    <path fill-rule="evenodd" clip-rule="evenodd" d="M63.71 6.968c3.618 0 5.474 2.87 5.474 6.267 0 3.804-2.296 6.148-5.288 6.148-1.925 0-2.852-.79-3.015-.933v2.896c0 .262.15.376.358.376h.895V24H55.2v-2.278h.612c.206 0 .361-.147.361-.376V9.8c0-.23-.139-.394-.377-.394H55.2V7.16h5.298l.407.838c.44-.336 1.414-1.03 2.805-1.03zm-13.984 0c3.618 0 5.474 2.87 5.474 6.267 0 3.804-2.297 6.148-5.289 6.148-1.924 0-2.852-.79-3.014-.933v2.896c0 .262.15.376.358.376h.895V24h-6.934v-2.278h.612c.205 0 .361-.147.361-.376V9.8c0-.23-.14-.394-.377-.394h-.596V7.16h5.298l.407.838c.44-.336 1.414-1.03 2.805-1.03zm27-.774c2.687 0 4.74 1.509 5.394 3.587.27.866.519 2.77.045 4.181h-7.37c.135.668.69 2.165 2.585 2.165 1.09 0 1.924-.27 3.16-1.323l1.605 2.069c-1.738 1.81-3.184 2.482-5.531 2.482-2.8 0-5.958-1.954-5.958-6.705 0-4.056 2.663-6.456 6.07-6.456zm-37.381.774v9.59c0 .255.17.388.381.388h.754v2.409h-6.624v-2.409h.617c.236 0 .377-.142.377-.38V9.602c0-.237-.133-.38-.368-.38h-.626V6.968h5.489zm-14.578 0v6.426c0 1.803.478 2.418 1.432 2.418.814 0 1.29-.747 1.29-1.831V9.629c0-.264-.132-.42-.387-.42h-.775V6.968h5.652v9.312c0 .247.145.395.377.395h.764v2.342h-4.288l-.738-1.517c-.664.929-1.512 1.855-3.304 1.855-3.514 0-4.677-1.88-4.677-5.88V9.58c0-.215-.112-.371-.367-.371h-.61V6.968h5.63zM92 6.194v3.89c-2.192 0-3.33.899-3.33 2.976v2.84c0 .28.136.435.416.435h.765v2.246h-6.683v-2.246h.597c.258 0 .442-.155.442-.456v-6.5c0-.216-.184-.388-.442-.388h-.574V6.783h4.44l.709 1.51c.613-1.133 1.228-2.1 3.66-2.1zM62.528 10.34c-.904 0-1.74 1.172-1.647 3.061 0 1.627.79 2.871 1.67 2.871.974 0 1.647-1.171 1.647-2.99 0-1.436-.65-2.942-1.67-2.942zm-13.984 0c-.905 0-1.74 1.172-1.647 3.061 0 1.627.79 2.871 1.67 2.871.974 0 1.647-1.171 1.647-2.99 0-1.436-.65-2.942-1.67-2.942zm27.893-.807c-1.377 0-1.693 1.574-1.738 2.192h3.408c-.023-.94-.226-2.192-1.67-2.192zM37.168 0c1.423 0 2.576 1.214 2.576 2.71 0 1.497-1.153 2.71-2.576 2.71s-2.576-1.213-2.576-2.71c0-1.496 1.153-2.71 2.576-2.71zM8.752 15.413c-2.159 0-3.087-2.569-3.087-5.739s.967-5.739 3.087-5.739 3.088 2.57 3.088 5.74c0 3.169-.93 5.738-3.088 5.738zm8.536 1.945c0 .873-.208 1.282-.706 1.282-.646 0-1.08-.924-1.226-1.809 1.42-1.668 2.142-4.034 2.142-6.954C17.498 3.95 14.763 0 8.671 0 3.483 0 0 4.007 0 9.682c0 6.565 3.612 9.848 8.827 9.848.695 0 1.392-.055 2.013-.166.53 1.37 1.9 3.088 4.184 3.088 2.581 0 4.112-1.58 4.112-4.914v-.902h-1.848v.722z" fill='#6b8fbc'/>
</svg>
