<svg width="24" height="24" viewBox="0 0 24 24" fill="none" xmlns="http://www.w3.org/2000/svg">
    <path fill-rule="evenodd" clip-rule="evenodd" d="M21.27 12.75a.75.75 0 0 0 0-1.5h-.81a8.31 8.31 0 0 0-.35-1.8l.74-.31a.75.75 0 1 0-.57-1.38l-.75.31a8.412 8.412 0 0 0-1-1.52l.55-.55A.764.764 0 0 0 18 4.92l-.57.57a9.174 9.174 0 0 0-1.52-1l.31-.75a.75.75 0 0 0-.41-1 .75.75 0 0 0-1 .41l-.3.74a8.31 8.31 0 0 0-1.8-.35v-.81a.75.75 0 0 0-1.5 0v.81a8.31 8.31 0 0 0-1.8.35l-.31-.74a.75.75 0 1 0-1.38.57l.31.75a8.41 8.41 0 0 0-1.52 1L6 4.92A.764.764 0 0 0 4.92 6l.57.57a9.17 9.17 0 0 0-1 1.52l-.75-.31a.75.75 0 0 0-1 .41.75.75 0 0 0 .41 1l.74.3a8.31 8.31 0 0 0-.35 1.8h-.81a.75.75 0 0 0 0 1.5h.81a8.31 8.31 0 0 0 .35 1.8l-.74.31a.75.75 0 0 0-.41 1 .77.77 0 0 0 .7.46.71.71 0 0 0 .28-.06l.75-.31a8.41 8.41 0 0 0 1 1.52l-.55.49a.74.74 0 0 0 0 1.06.71.71 0 0 0 .53.22.74.74 0 0 0 .55-.2l.57-.57c.472.383.981.718 1.52 1l-.31.75a.75.75 0 0 0 .41 1c.092.02.188.02.28 0a.75.75 0 0 0 .7-.46l.3-.74a8.31 8.31 0 0 0 1.8.35v.81a.75.75 0 0 0 1.5 0v-.81a8.31 8.31 0 0 0 1.8-.35l.31.74a.74.74 0 0 0 .69.46.773.773 0 0 0 .29 0 .75.75 0 0 0 .4-1l-.31-.75a8.413 8.413 0 0 0 1.52-1l.57.57c.14.142.33.22.53.22a.71.71 0 0 0 .53-.22.74.74 0 0 0 0-1.06l-.57-.57a9.173 9.173 0 0 0 1-1.52l.75.31a.71.71 0 0 0 .28.06.75.75 0 0 0 .29-1.45l-.74-.3a8.31 8.31 0 0 0 .35-1.8h.81zM9.5 12a2.5 2.5 0 1 1 5 0 2.5 2.5 0 0 1-5 0zm1.5 0a1 1 0 1 0 2 0 1 1 0 0 0-2 0zm-6 0a7 7 0 1 0 14 0 7 7 0 0 0-14 0z" fill="#1E3F6B"/>
</svg>
