<svg width="24" height="24" viewBox="0 0 24 24" fill="none" xmlns="http://www.w3.org/2000/svg">
    <path fill-rule="evenodd" clip-rule="evenodd" d="m21.38 5.45-2.83-2.83a1.51 1.51 0 0 0-1.06-.43 1.49 1.49 0 0 0-1.06.43l-1.77 1.77-1.06 1.07-10.11 10.1a1.5 1.5 0 0 0-.38.64l-1.17 4a1.55 1.55 0 0 0 .19 1.28.74.74 0 0 0 .73.62h9a.74.74 0 0 0 .74-.74.75.75 0 0 0-.74-.76H8.32l.12-.11 10.11-10.1 1.06-1.07 1.77-1.77a1.51 1.51 0 0 0 0-2.1zm-14 14-4 1.17 1.17-4 10.11-10.1 2.82 2.82-10.1 10.11zm8.34-14 2.83 2.83 1.76-1.77-2.82-2.82-1.77 1.76z" fill="#1E3F6B"/>
</svg>
