<svg width="24" height="24" viewBox="0 0 24 24" fill="none" xmlns="http://www.w3.org/2000/svg">
    <path fill-rule="evenodd" clip-rule="evenodd" d="m20.34 13.23 1.42 1.42a1.51 1.51 0 0 1 .02 2.14l-.78.77-4 4a1.46 1.46 0 0 1-1 .44h-1.51A1.5 1.5 0 0 1 13 20.44V19c.02-.378.18-.735.45-1l2.91-2.94.88-.88c-.13-.14-.27-.27-.42-.39A7.43 7.43 0 0 0 12 12a7.76 7.76 0 0 0-7.5 7.79v.71h5.75a.75.75 0 0 1 0 1.5H4.5A1.5 1.5 0 0 1 3 20.5v-.72a9.3 9.3 0 0 1 6.5-8.92A4 4 0 0 1 8 7.76V6a4 4 0 1 1 8 0v1.76a4 4 0 0 1-1.5 3.1 9 9 0 0 1 3.85 2.27c.26-.22.59-.34.93-.34a1.5 1.5 0 0 1 1.06.44zM12 3.5A2.5 2.5 0 0 0 9.5 6v1.76a2.5 2.5 0 0 0 5 0V6A2.5 2.5 0 0 0 12 3.5zm3.93 16.97h-1.44v-1.44l2.94-2.93 1.41 1.41-2.91 2.96zm2.59-5.41 1.41 1.41.78-.77-1.42-1.42-.71.71-.06.07z" fill="#1E3F6B"/>
</svg>
