<svg width="24" height="24" viewBox="0 0 24 24" fill="none" xmlns="http://www.w3.org/2000/svg">
    <path d="M3.5 20.107a1.5 1.5 0 0 1-.83-2.75l1.83-1.22v-4a7.83 7.83 0 0 1 6.75-8v-1a.75.75 0 1 1 1.5 0v1a7.12 7.12 0 0 1 3.29 1.23l-1 1.15a5.62 5.62 0 0 0-3.04-.91 6.27 6.27 0 0 0-6 6.5v4.8l-2.5 1.7h1.36l-1.27 1.5H3.5zm18.44-1.07a1.51 1.51 0 0 1-1.44 1.07h-6.57c.044.163.067.331.07.5a2 2 0 1 1-4 0c.003-.169.027-.337.07-.5H7.5l1.26-1.5H20.5l-2.5-1.7v-4.8a6.75 6.75 0 0 0-.87-3.36l1-1.21a8.32 8.32 0 0 1 1.37 4.57v4l1.83 1.22a1.5 1.5 0 0 1 .61 1.71zm-9.93 1.07a.5.5 0 1 0 .18.03.5.5 0 0 0-.2-.03h.02zm4.7-12 1-1.16 3.09-3.71a.75.75 0 0 0-.09-1.06.74.74 0 0 0-1.05.09l-3 3.57-1 1.14-9.82 11.63-1.27 1.5-1.32 1.56a.76.76 0 0 0 .58 1.24.74.74 0 0 0 .57-.27l2.1-2.53 1.27-1.5 8.94-10.5z" fill="#1E3F6B"/>
</svg>
