<svg width="24" height="24" viewBox="0 0 24 24" fill="none" xmlns="http://www.w3.org/2000/svg">
    <path fill-rule="evenodd" clip-rule="evenodd" d="m21.33 16.75-1.83-1.22v-4a7.84 7.84 0 0 0-6.75-8v-1a.75.75 0 0 0-1.5 0v1a7.84 7.84 0 0 0-6.75 8v4l-1.83 1.22a1.5 1.5 0 0 0 .83 2.75h6.57a2.076 2.076 0 0 0-.07.5 2 2 0 1 0 4 0 2.085 2.085 0 0 0-.07-.5h6.57a1.5 1.5 0 0 0 .83-2.75zM12.5 20a.5.5 0 1 1-1 0 .5.5 0 0 1 1 0zM6 16.33 3.5 18h17L18 16.33V11.5A6.27 6.27 0 0 0 12 5a6.27 6.27 0 0 0-6 6.5v4.83zm12-12.8a.75.75 0 0 1 1-1.06l2 2a.75.75 0 0 1-1.06 1.06l-1.94-2zM3 4.47a.75.75 0 0 0 0 1.06.75.75 0 0 0 1 0l2-2a.75.75 0 0 0-1-1.06l-2 2z" fill="#8FB0D4"/>
</svg>
