<svg width="16" height="17" viewBox="0 0 16 17" fill="none" xmlns="http://www.w3.org/2000/svg">
    <path d="M5.153 8.717c-.1.093-.193.193-.273.293a.804.804 0 0 0-.133.173 3.641 3.641 0 0 0-.56 1l-1.84-6.886c-.094-.334-.02-.68.186-.947a1.09 1.09 0 0 1 .874-.433h1.966l.287 1 .393 1.393.28 1 .674 2.373a3.22 3.22 0 0 0-.634.214c-.153.066-.306.14-.453.233-.147.087-.28.173-.413.28-.127.093-.24.193-.354.307zM9.947 1.917 8.98 5.31H7.02l-.96-3.393h3.887zM12.593 1.917c.347 0 .667.16.874.433.206.267.28.613.186.947l-1.826 6.84a3.922 3.922 0 0 0-.38-.72.847.847 0 0 0-.087-.127 3.435 3.435 0 0 0-.187-.247c0-.004-.002-.005-.006-.008a.038.038 0 0 1-.007-.005c-.027-.036-.06-.071-.092-.107a3.274 3.274 0 0 1-.048-.053c-.067-.08-.147-.153-.227-.227a3.888 3.888 0 0 0-.306-.253.91.91 0 0 0-.14-.1 2.933 2.933 0 0 0-.26-.173 4.163 4.163 0 0 0-.454-.234A3.503 3.503 0 0 0 9 7.677l.673-2.367.28-1 .394-1.393.286-1h1.96zM10.887 9.777A3.463 3.463 0 0 0 9.753 8.69c-.286-.167-.6-.3-.933-.373a3.092 3.092 0 0 0-.667-.094c-.046-.006-.093-.006-.14-.006-.053 0-.113 0-.166.006-.227.007-.447.04-.66.1-.334.074-.64.207-.927.38-.467.274-.86.654-1.147 1.114a3.41 3.41 0 0 0-.533 1.826c0 .767.247 1.467.667 2.034a3.428 3.428 0 0 0 2.766 1.406 3.422 3.422 0 0 0 2.78-1.433c.414-.56.654-1.253.654-2 0-.027 0-.047-.007-.073 0-.66-.213-1.28-.553-1.8z" fill="#6B8FBC"/>
</svg>
