<svg width="24" height="24" viewBox="0 0 24 24" fill="none" xmlns="http://www.w3.org/2000/svg">
    <path fill-rule="evenodd" clip-rule="evenodd" d="m19.5 15.53 1.83 1.22a1.5 1.5 0 0 1-.83 2.75h-6.57c.043.163.067.331.07.5a2 2 0 1 1-4 0c.003-.169.026-.337.07-.5H3.5a1.5 1.5 0 0 1-.83-2.75l1.83-1.22v-4a7.84 7.84 0 0 1 6.75-8v-1a.75.75 0 0 1 1.5 0v1a7.84 7.84 0 0 1 6.75 8v4zm-8 4.47a.5.5 0 1 0 1 0 .5.5 0 0 0-1 0zM18 3.5a.75.75 0 0 1 1-1.03l2 2a.75.75 0 0 1-1.06 1.06L18 3.5zM3 4.47A.75.75 0 0 0 3 5.5v.03a.75.75 0 0 0 1 0l2-2a.75.75 0 0 0-1-1.06l-2 2z" fill="#009FEB"/>
</svg>
