<?xml version="1.0" encoding="utf-8"?>
<svg xmlns="http://www.w3.org/2000/svg">
<symbol id="outline_account" viewBox="0 0 24 24">
    <path fill-rule="evenodd" clip-rule="evenodd" d="M14.5 10.86a4 4 0 0 0 1.5-3.1V6a4 4 0 0 0-8 0v1.76a4 4 0 0 0 1.5 3.1A9 9 0 0 0 3 19.5v1A1.5 1.5 0 0 0 4.5 22h15a1.5 1.5 0 0 0 1.5-1.5v-1a9 9 0 0 0-6.5-8.64zM9.5 6a2.5 2.5 0 0 1 5 0v1.76a2.5 2.5 0 0 1-5 0V6zm-5 13.5v1h15v-1a7.5 7.5 0 0 0-15 0z" fill="currentColor"/>

</symbol>
<symbol id="outline_activity" viewBox="0 0 24 24">
    <path fill-rule="evenodd" clip-rule="evenodd" d="m20.34 13.23 1.42 1.42a1.51 1.51 0 0 1 .02 2.14l-.78.77-4 4a1.46 1.46 0 0 1-1 .44h-1.51A1.5 1.5 0 0 1 13 20.44V19c.02-.378.18-.735.45-1l2.91-2.94.88-.88c-.13-.14-.27-.27-.42-.39A7.43 7.43 0 0 0 12 12a7.76 7.76 0 0 0-7.5 7.79v.71h5.75a.75.75 0 0 1 0 1.5H4.5A1.5 1.5 0 0 1 3 20.5v-.72a9.3 9.3 0 0 1 6.5-8.92A4 4 0 0 1 8 7.76V6a4 4 0 1 1 8 0v1.76a4 4 0 0 1-1.5 3.1 9 9 0 0 1 3.85 2.27c.26-.22.59-.34.93-.34a1.5 1.5 0 0 1 1.06.44zM12 3.5A2.5 2.5 0 0 0 9.5 6v1.76a2.5 2.5 0 0 0 5 0V6A2.5 2.5 0 0 0 12 3.5zm3.93 16.97h-1.44v-1.44l2.94-2.93 1.41 1.41-2.91 2.96zm2.59-5.41 1.41 1.41.78-.77-1.42-1.42-.71.71-.06.07z" fill="currentColor"/>

</symbol>
<symbol id="outline_add-student" viewBox="0 0 24 24">
    <path fill-rule="evenodd" clip-rule="evenodd" d="M11.328 2a4.505 4.505 0 0 0-1.64 8.701 9.153 9.153 0 0 0-7.674 9.032v1.553c0 .394.32.714.714.714h16.877c.394 0 .714-.32.714-.714v-1.553a9.153 9.153 0 0 0-7.453-8.993A4.507 4.507 0 0 0 11.328 2zM8.252 6.505a3.076 3.076 0 1 1 6.153 0 3.076 3.076 0 0 1-6.153 0zm-2.547 7.767a7.724 7.724 0 0 1 13.185 5.461v.838H3.443v-.838a7.723 7.723 0 0 1 2.262-5.461z" fill="currentColor"/>
    <path d="M19.366 2.01c.395 0 .715.32.715.714v1.19h1.19a.714.714 0 1 1 0 1.429h-1.19v1.19a.714.714 0 0 1-1.429 0v-1.19h-1.19a.714.714 0 1 1 0-1.429h1.19v-1.19c0-.395.32-.714.714-.714z" fill="currentColor"/>

</symbol>
<symbol id="outline_bell" viewBox="0 0 24 24">
    <path fill-rule="evenodd" clip-rule="evenodd" d="m21.33 16.75-1.83-1.22v-4a7.84 7.84 0 0 0-6.75-8v-1a.75.75 0 0 0-1.5 0v1a7.84 7.84 0 0 0-6.75 8v4l-1.83 1.22a1.5 1.5 0 0 0 .83 2.75h6.57a2.076 2.076 0 0 0-.07.5 2 2 0 1 0 4 0 2.085 2.085 0 0 0-.07-.5h6.57a1.5 1.5 0 0 0 .83-2.75zM12.5 20a.5.5 0 1 1-1 0 .5.5 0 0 1 1 0zM6 16.33 3.5 18h17L18 16.33V11.5A6.27 6.27 0 0 0 12 5a6.27 6.27 0 0 0-6 6.5v4.83zm12-12.8a.75.75 0 0 1 1-1.06l2 2a.75.75 0 0 1-1.06 1.06l-1.94-2zM3 4.47a.75.75 0 0 0 0 1.06.75.75 0 0 0 1 0l2-2a.75.75 0 0 0-1-1.06l-2 2z" fill="currentColor"/>

</symbol>
<symbol id="outline_bookmark" viewBox="0 0 24 24">
    <path fill-rule="evenodd" clip-rule="evenodd" d="M5.5 2h13A1.5 1.5 0 0 1 20 3.5v17a1.5 1.5 0 0 1-1.5 1.5 1.5 1.5 0 0 1-.79-.22L12 18.26l-5.71 3.52a1.5 1.5 0 0 1-.79.22A1.5 1.5 0 0 1 4 20.5v-17A1.5 1.5 0 0 1 5.5 2zM12 16.5l6.5 4v-17h-13v17l6.5-4z" fill="currentColor"/>

</symbol>
<symbol id="outline_edit" viewBox="0 0 24 24">
    <path fill-rule="evenodd" clip-rule="evenodd" d="m21.38 5.45-2.83-2.83a1.51 1.51 0 0 0-1.06-.43 1.49 1.49 0 0 0-1.06.43l-1.77 1.77-1.06 1.07-10.11 10.1a1.5 1.5 0 0 0-.38.64l-1.17 4a1.55 1.55 0 0 0 .19 1.28.74.74 0 0 0 .73.62h9a.74.74 0 0 0 .74-.74.75.75 0 0 0-.74-.76H8.32l.12-.11 10.11-10.1 1.06-1.07 1.77-1.77a1.51 1.51 0 0 0 0-2.1zm-14 14-4 1.17 1.17-4 10.11-10.1 2.82 2.82-10.1 10.11zm8.34-14 2.83 2.83 1.76-1.77-2.82-2.82-1.77 1.76z" fill="currentColor"/>

</symbol>
<symbol id="outline_logout" viewBox="0 0 24 24">
    <path fill-rule="evenodd" clip-rule="evenodd" d="M5.92 18.71a9.5 9.5 0 0 0 13.43 0A9.493 9.493 0 1 0 5.92 5.29.757.757 0 0 0 7 6.35a8 8 0 1 1 0 11.3.757.757 0 0 0-1.08 1.06zm2.61-3.7a.77.77 0 0 1 0-1.07l1.2-1.18H2.67a.75.75 0 0 1 0-1.5h7.06l-1.2-1.19a.77.77 0 0 1 0-1.07.75.75 0 0 1 1.06 0l2.48 2.46a.75.75 0 0 1 0 1.06L9.59 15a.77.77 0 0 1-.53.23.79.79 0 0 1-.53-.22z" fill="currentColor"/>

</symbol>
<symbol id="outline_mail" viewBox="0 0 24 24">
    <path fill-rule="evenodd" clip-rule="evenodd" d="M21.68 5.59A1.44 1.44 0 0 0 20.5 5h-17a1.44 1.44 0 0 0-1.18.59A1.46 1.46 0 0 0 2 6.5v11A1.5 1.5 0 0 0 3.5 19h17a1.5 1.5 0 0 0 1.5-1.5v-11c0-.33-.113-.652-.32-.91zM18 6.5l-6 4.56L6 6.5h12zm-14.5 0v11h17l-.1-11-8 6.1a.75.75 0 0 1-.9 0l-8-6.1z" fill="currentColor"/>

</symbol>
<symbol id="outline_mute-notification" viewBox="0 0 24 24">
    <path d="M3.5 20.107a1.5 1.5 0 0 1-.83-2.75l1.83-1.22v-4a7.83 7.83 0 0 1 6.75-8v-1a.75.75 0 1 1 1.5 0v1a7.12 7.12 0 0 1 3.29 1.23l-1 1.15a5.62 5.62 0 0 0-3.04-.91 6.27 6.27 0 0 0-6 6.5v4.8l-2.5 1.7h1.36l-1.27 1.5H3.5zm18.44-1.07a1.51 1.51 0 0 1-1.44 1.07h-6.57c.044.163.067.331.07.5a2 2 0 1 1-4 0c.003-.169.027-.337.07-.5H7.5l1.26-1.5H20.5l-2.5-1.7v-4.8a6.75 6.75 0 0 0-.87-3.36l1-1.21a8.32 8.32 0 0 1 1.37 4.57v4l1.83 1.22a1.5 1.5 0 0 1 .61 1.71zm-9.93 1.07a.5.5 0 1 0 .18.03.5.5 0 0 0-.2-.03h.02zm4.7-12 1-1.16 3.09-3.71a.75.75 0 0 0-.09-1.06.74.74 0 0 0-1.05.09l-3 3.57-1 1.14-9.82 11.63-1.27 1.5-1.32 1.56a.76.76 0 0 0 .58 1.24.74.74 0 0 0 .57-.27l2.1-2.53 1.27-1.5 8.94-10.5z" fill="currentColor"/>

</symbol>
<symbol id="outline_setting" viewBox="0 0 24 24">
    <path fill-rule="evenodd" clip-rule="evenodd" d="M21.27 12.75a.75.75 0 0 0 0-1.5h-.81a8.31 8.31 0 0 0-.35-1.8l.74-.31a.75.75 0 1 0-.57-1.38l-.75.31a8.412 8.412 0 0 0-1-1.52l.55-.55A.764.764 0 0 0 18 4.92l-.57.57a9.174 9.174 0 0 0-1.52-1l.31-.75a.75.75 0 0 0-.41-1 .75.75 0 0 0-1 .41l-.3.74a8.31 8.31 0 0 0-1.8-.35v-.81a.75.75 0 0 0-1.5 0v.81a8.31 8.31 0 0 0-1.8.35l-.31-.74a.75.75 0 1 0-1.38.57l.31.75a8.41 8.41 0 0 0-1.52 1L6 4.92A.764.764 0 0 0 4.92 6l.57.57a9.17 9.17 0 0 0-1 1.52l-.75-.31a.75.75 0 0 0-1 .41.75.75 0 0 0 .41 1l.74.3a8.31 8.31 0 0 0-.35 1.8h-.81a.75.75 0 0 0 0 1.5h.81a8.31 8.31 0 0 0 .35 1.8l-.74.31a.75.75 0 0 0-.41 1 .77.77 0 0 0 .7.46.71.71 0 0 0 .28-.06l.75-.31a8.41 8.41 0 0 0 1 1.52l-.55.49a.74.74 0 0 0 0 1.06.71.71 0 0 0 .53.22.74.74 0 0 0 .55-.2l.57-.57c.472.383.981.718 1.52 1l-.31.75a.75.75 0 0 0 .41 1c.092.02.188.02.28 0a.75.75 0 0 0 .7-.46l.3-.74a8.31 8.31 0 0 0 1.8.35v.81a.75.75 0 0 0 1.5 0v-.81a8.31 8.31 0 0 0 1.8-.35l.31.74a.74.74 0 0 0 .69.46.773.773 0 0 0 .29 0 .75.75 0 0 0 .4-1l-.31-.75a8.413 8.413 0 0 0 1.52-1l.57.57c.14.142.33.22.53.22a.71.71 0 0 0 .53-.22.74.74 0 0 0 0-1.06l-.57-.57a9.173 9.173 0 0 0 1-1.52l.75.31a.71.71 0 0 0 .28.06.75.75 0 0 0 .29-1.45l-.74-.3a8.31 8.31 0 0 0 .35-1.8h.81zM9.5 12a2.5 2.5 0 1 1 5 0 2.5 2.5 0 0 1-5 0zm1.5 0a1 1 0 1 0 2 0 1 1 0 0 0-2 0zm-6 0a7 7 0 1 0 14 0 7 7 0 0 0-14 0z" fill="currentColor"/>

</symbol>
<symbol id="solid_account" viewBox="0 0 24 24">
    <path d="M21 19.5v1a1.5 1.5 0 0 1-1.5 1.5h-15A1.5 1.5 0 0 1 3 20.5v-1a9 9 0 0 1 6.5-8.64A4 4 0 0 1 8 7.76V6a4 4 0 1 1 8 0v1.76a4 4 0 0 1-1.5 3.1A9 9 0 0 1 21 19.5z" fill="currentColor"/>

</symbol>
<symbol id="solid_bell" viewBox="0 0 24 24">
    <path fill-rule="evenodd" clip-rule="evenodd" d="m19.5 15.53 1.83 1.22a1.5 1.5 0 0 1-.83 2.75h-6.57c.043.163.067.331.07.5a2 2 0 1 1-4 0c.003-.169.026-.337.07-.5H3.5a1.5 1.5 0 0 1-.83-2.75l1.83-1.22v-4a7.84 7.84 0 0 1 6.75-8v-1a.75.75 0 0 1 1.5 0v1a7.84 7.84 0 0 1 6.75 8v4zm-8 4.47a.5.5 0 1 0 1 0 .5.5 0 0 0-1 0zM18 3.5a.75.75 0 0 1 1-1.03l2 2a.75.75 0 0 1-1.06 1.06L18 3.5zM3 4.47A.75.75 0 0 0 3 5.5v.03a.75.75 0 0 0 1 0l2-2a.75.75 0 0 0-1-1.06l-2 2z" fill="currentColor"/>

</symbol>
<symbol id="solid_bookmark" viewBox="0 0 24 24">
    <path d="M18.5 1h-13A1.5 1.5 0 0 0 4 2.5v17A1.5 1.5 0 0 0 5.5 21a1.5 1.5 0 0 0 .79-.22L12 17.26l5.71 3.52a1.5 1.5 0 0 0 .79.22 1.5 1.5 0 0 0 1.5-1.5v-17A1.5 1.5 0 0 0 18.5 1z" fill="currentColor"/>

</symbol>
<symbol id="solid_mail" viewBox="0 0 24 24">
    <path fill-rule="evenodd" clip-rule="evenodd" d="m4 6.62 8 6.06 8-6.06H4zm-1.68.6 9.23 7a.71.71 0 0 0 .9 0l9.23-7.01c.207.258.32.58.32.91v11a1.5 1.5 0 0 1-1.5 1.5h-17a1.5 1.5 0 0 1-1.5-1.5v-11a1.46 1.46 0 0 1 .32-.9z" fill="currentColor"/>

</symbol>
<symbol id="solid_medal" viewBox="0 0 16 17">
    <path d="M5.153 8.717c-.1.093-.193.193-.273.293a.804.804 0 0 0-.133.173 3.641 3.641 0 0 0-.56 1l-1.84-6.886c-.094-.334-.02-.68.186-.947a1.09 1.09 0 0 1 .874-.433h1.966l.287 1 .393 1.393.28 1 .674 2.373a3.22 3.22 0 0 0-.634.214c-.153.066-.306.14-.453.233-.147.087-.28.173-.413.28-.127.093-.24.193-.354.307zM9.947 1.917 8.98 5.31H7.02l-.96-3.393h3.887zM12.593 1.917c.347 0 .667.16.874.433.206.267.28.613.186.947l-1.826 6.84a3.922 3.922 0 0 0-.38-.72.847.847 0 0 0-.087-.127 3.435 3.435 0 0 0-.187-.247c0-.004-.002-.005-.006-.008a.038.038 0 0 1-.007-.005c-.027-.036-.06-.071-.092-.107a3.274 3.274 0 0 1-.048-.053c-.067-.08-.147-.153-.227-.227a3.888 3.888 0 0 0-.306-.253.91.91 0 0 0-.14-.1 2.933 2.933 0 0 0-.26-.173 4.163 4.163 0 0 0-.454-.234A3.503 3.503 0 0 0 9 7.677l.673-2.367.28-1 .394-1.393.286-1h1.96zM10.887 9.777A3.463 3.463 0 0 0 9.753 8.69c-.286-.167-.6-.3-.933-.373a3.092 3.092 0 0 0-.667-.094c-.046-.006-.093-.006-.14-.006-.053 0-.113 0-.166.006-.227.007-.447.04-.66.1-.334.074-.64.207-.927.38-.467.274-.86.654-1.147 1.114a3.41 3.41 0 0 0-.533 1.826c0 .767.247 1.467.667 2.034a3.428 3.428 0 0 0 2.766 1.406 3.422 3.422 0 0 0 2.78-1.433c.414-.56.654-1.253.654-2 0-.027 0-.047-.007-.073 0-.66-.213-1.28-.553-1.8z" fill="currentColor"/>

</symbol></svg>